<?xml version="1.0" ?><!DOCTYPE svg  PUBLIC '-//W3C//DTD SVG 1.1//EN'  'http://www.w3.org/Graphics/SVG/1.1/DTD/svg11.dtd'><svg height="2048px" style="shape-rendering:geometricPrecision; text-rendering:geometricPrecision; image-rendering:optimizeQuality; fill-rule:evenodd; clip-rule:evenodd" viewBox="0 0 2048 2048" width="2048px" xml:space="preserve" xmlns="http://www.w3.org/2000/svg" xmlns:xlink="http://www.w3.org/1999/xlink"><defs><style type="text/css">
   <![CDATA[
    .fil1 {fill:none}
    .fil0 {fill:#424242;fill-rule:nonzero}
   ]]>
  </style></defs><g id="Layer_x0020_1"><polygon class="fil0" points="1596.19,1720.8 1528.91,1513.66 1525.33,1502.62 1534.73,1495.79 1710.8,1367.84 1493.12,1367.84 1481.53,1367.84 1477.94,1356.77 1410.63,1149.63 1343.36,1356.77 1339.77,1367.84 1328.18,1367.84 1110.44,1367.84 1286.52,1495.79 1295.92,1502.62 1292.33,1513.66 1225.07,1720.8 1401.25,1592.77 1410.62,1585.96 1420,1592.77 "/><path class="fil0" d="M948.339 1315.16c76.9654,55.9347 241.667,175.631 276.249,200.727l9.37087 6.79961 -3.55748 11.0126c-6.84095,21.176 -15.3142,47.3197 -23.8394,73.578 -12.1276,37.3536 -27.0189,83.1804 -41.4567,127.592l-6.79607 20.9008 -17.7662 -12.9626 -857.062 -643.797 850.551 -13.9217 276.194 -804.66 345.01 1013.79 6.80315 20.9374 -21.991 0 -208.65 0 -11.5949 0 -3.59292 -11.0634c-13.2201,-40.7008 -76.2107,-234.501 -105.613,-324.963 -29.7449,91.617 -93.8079,288.931 -105.517,324.963l-3.59646 11.0634 -11.5913 0 -341.554 0z"/></g><rect class="fil1" height="2048" width="2048"/></svg>