<?xml version="1.0" ?><!DOCTYPE svg  PUBLIC '-//W3C//DTD SVG 1.1//EN'  'http://www.w3.org/Graphics/SVG/1.1/DTD/svg11.dtd'><svg height="2048px" style="shape-rendering:geometricPrecision; text-rendering:geometricPrecision; image-rendering:optimizeQuality; fill-rule:evenodd; clip-rule:evenodd" viewBox="0 0 2048 2048" width="2048px" xml:space="preserve" xmlns="http://www.w3.org/2000/svg" xmlns:xlink="http://www.w3.org/1999/xlink"><defs><style type="text/css">
   <![CDATA[
    .fil2 {fill:none}
    .fil0 {fill:#F7323F}
    .fil1 {fill:#FF671B}
   ]]>
  </style></defs><g id="Layer_x0020_1"><g id="_305702632"><polygon class="fil0" id="_305702272" points="1650.53,1792 1564.78,1527.99 1789.27,1364.88 1511.78,1364.88 1426,1100.87 1340.27,1364.88 1062.72,1364.88 1287.21,1527.99 1201.49,1792 1426,1628.84 "/><path class="fil1" d="M1222.82 1548.9c-47.23,-34.278 -328.638,-238.8 -328.638,-238.8 0.00236221,0 347.87,0 406.279,0 18.0567,-55.5556 125.511,-386.464 125.511,-386.464 0,0 107.554,330.909 125.602,386.464 28.3666,0 125.019,0 216.947,0l-342.521 -1054.1 -275.535 848.166 -891.731 0 896.189 653.839c28.6819,-88.2237 59.0776,-181.832 67.8957,-209.101z" id="_305702416"/></g></g><rect class="fil2" height="2048" width="2048"/></svg>